HIERARCHY
ROOT Hips
{
	OFFSET 0.000000 100.481300 0.000000
	CHANNELS 6 Xposition Yposition Zposition Xrotation Yrotation Zrotation 
	JOINT Spine
	{
		OFFSET -0.279200 12.230698 -2.892100
		CHANNELS 3 Xrotation Yrotation Zrotation
		JOINT Spine1
		{
			OFFSET -0.232667 10.192268 -1.242267
			CHANNELS 3 Xrotation Yrotation Zrotation
			JOINT Spine1_split
			{
				OFFSET -0.232667 10.192268 -1.242267
				CHANNELS 3 Xrotation Yrotation Zrotation
				JOINT Spine2
				{
					OFFSET -0.232667 10.192268 -1.242267
					CHANNELS 3 Xrotation Yrotation Zrotation
					JOINT Neck
					{
						OFFSET -0.418800 17.814194 8.416900
						CHANNELS 3 Xrotation Yrotation Zrotation
						JOINT Head
						{
							OFFSET 0.000000 7.031097 3.806800
							CHANNELS 3 Xrotation Yrotation Zrotation
							JOINT HeadTop_End
							{
								OFFSET 0.000000 24.646606 12.978600
								CHANNELS 3 Xrotation Yrotation Zrotation
								End Site
								{
									OFFSET 0.000000 0.000000 0.000000
								}
							}
						}
					}
					JOINT LeftShoulder
					{
						OFFSET 8.476499 7.247704 -3.868750
						CHANNELS 3 Xrotation Yrotation Zrotation
						JOINT LeftShoulder_split
						{
							OFFSET 8.476499 7.247704 -3.868750
							CHANNELS 3 Xrotation Yrotation Zrotation
							JOINT LeftArm
							{
								OFFSET 9.308998 -2.777710 0.208600
								CHANNELS 3 Xrotation Yrotation Zrotation
								JOINT LeftForeArm
								{
									OFFSET 29.972298 0.000000 0.000000
									CHANNELS 3 Xrotation Yrotation Zrotation
									JOINT LeftHand
									{
										OFFSET 26.026505 0.000000 0.000000
										CHANNELS 3 Xrotation Yrotation Zrotation
										JOINT LeftHandThumb1
										{
											OFFSET 12.240501 -7.147949 9.207150
											CHANNELS 3 Xrotation Yrotation Zrotation
											JOINT LeftHandThumb2
											{
												OFFSET 4.138618 -2.389435 2.389433
												CHANNELS 3 Xrotation Yrotation Zrotation
												JOINT LeftHandThumb3
												{
													OFFSET 2.726913 -1.574387 1.574386
													CHANNELS 3 Xrotation Yrotation Zrotation
													JOINT LeftHandThumb4
													{
														OFFSET 3.941010 -2.275345 2.275342
														CHANNELS 3 Xrotation Yrotation Zrotation
														End Site
														{
															OFFSET 0.000000 0.000000 0.000000
														}
													}
												}
											}
										}
										JOINT LeftHandIndex1
										{
											OFFSET 24.424698 -1.985611 5.953459
											CHANNELS 3 Xrotation Yrotation Zrotation
											JOINT LeftHandIndex2
											{
												OFFSET 6.426697 0.000000 0.000000
												CHANNELS 3 Xrotation Yrotation Zrotation
												JOINT LeftHandIndex3
												{
													OFFSET 5.337898 0.000000 0.000000
													CHANNELS 3 Xrotation Yrotation Zrotation
													JOINT LeftHandIndex4
													{
														OFFSET 4.409401 0.000000 0.000000
														CHANNELS 3 Xrotation Yrotation Zrotation
														End Site
														{
															OFFSET 0.000000 0.000000 0.000000
														}
													}
												}
											}
										}
										JOINT LeftHandMiddle1
										{
											OFFSET 23.810104 0.000000 0.000000
											CHANNELS 3 Xrotation Yrotation Zrotation
											JOINT LeftHandMiddle2
											{
												OFFSET 7.176498 0.000000 0.000000
												CHANNELS 3 Xrotation Yrotation Zrotation
												JOINT LeftHandMiddle3
												{
													OFFSET 6.774902 0.000000 0.000000
													CHANNELS 3 Xrotation Yrotation Zrotation
													JOINT LeftHandMiddle4
													{
														OFFSET 5.403328 0.000000 0.000000
														CHANNELS 3 Xrotation Yrotation Zrotation
														End Site
														{
															OFFSET 0.000000 0.000000 0.000000
														}
													}
												}
											}
										}
										JOINT LeftHandRing1
										{
											OFFSET 22.908401 -0.839279 -6.020567
											CHANNELS 3 Xrotation Yrotation Zrotation
											JOINT LeftHandRing2
											{
												OFFSET 6.337502 0.000000 0.000000
												CHANNELS 3 Xrotation Yrotation Zrotation
												JOINT LeftHandRing3
												{
													OFFSET 5.779297 0.000000 0.000000
													CHANNELS 3 Xrotation Yrotation Zrotation
													JOINT LeftHandRing4
													{
														OFFSET 4.965698 0.000000 0.000000
														CHANNELS 3 Xrotation Yrotation Zrotation
														End Site
														{
															OFFSET 0.000000 0.000000 0.000000
														}
													}
												}
											}
										}
										JOINT LeftHandPinky1
										{
											OFFSET 20.037003 -1.530319 -10.950146
											CHANNELS 3 Xrotation Yrotation Zrotation
											JOINT LeftHandPinky2
											{
												OFFSET 5.254700 0.000000 0.000000
												CHANNELS 3 Xrotation Yrotation Zrotation
												JOINT LeftHandPinky3
												{
													OFFSET 4.810204 0.000000 0.000000
													CHANNELS 3 Xrotation Yrotation Zrotation
													JOINT LeftHandPinky4
													{
														OFFSET 3.647202 0.000000 0.000000
														CHANNELS 3 Xrotation Yrotation Zrotation
														End Site
														{
															OFFSET 0.000000 0.000000 0.000000
														}
													}
												}
											}
										}
									}
								}
							}
						}
					}
					JOINT RightShoulder
					{
						OFFSET -7.570500 7.247704 -3.868750
						CHANNELS 3 Xrotation Yrotation Zrotation
						JOINT RightShoulder_split
						{
							OFFSET -7.570500 7.247704 -3.868750
							CHANNELS 3 Xrotation Yrotation Zrotation
							JOINT RightArm
							{
								OFFSET -9.308998 -2.777710 0.208500
								CHANNELS 3 Xrotation Yrotation Zrotation
								JOINT RightForeArm
								{
									OFFSET -29.972300 0.000000 0.000000
									CHANNELS 3 Xrotation Yrotation Zrotation
									JOINT RightHand
									{
										OFFSET -26.026505 0.000000 0.000000
										CHANNELS 3 Xrotation Yrotation Zrotation
										JOINT RightHandThumb1
										{
											OFFSET -12.240601 -7.148026 9.207092
											CHANNELS 3 Xrotation Yrotation Zrotation
											JOINT RightHandThumb2
											{
												OFFSET -4.138618 -2.389435 2.389433
												CHANNELS 3 Xrotation Yrotation Zrotation
												JOINT RightHandThumb3
												{
													OFFSET -2.726974 -1.574417 1.574421
													CHANNELS 3 Xrotation Yrotation Zrotation
													JOINT RightHandThumb4
													{
														OFFSET -3.941010 -2.275345 2.275343
														CHANNELS 3 Xrotation Yrotation Zrotation
														End Site
														{
															OFFSET 0.000000 0.000000 0.000000
														}
													}
												}
											}
										}
										JOINT RightHandIndex1
										{
											OFFSET -24.424698 -1.985657 5.953444
											CHANNELS 3 Xrotation Yrotation Zrotation
											JOINT RightHandIndex2
											{
												OFFSET -6.426697 0.000000 0.000000
												CHANNELS 3 Xrotation Yrotation Zrotation
												JOINT RightHandIndex3
												{
													OFFSET -5.337898 0.000000 0.000000
													CHANNELS 3 Xrotation Yrotation Zrotation
													JOINT RightHandIndex4
													{
														OFFSET -4.409401 0.000000 0.000000
														CHANNELS 3 Xrotation Yrotation Zrotation
														End Site
														{
															OFFSET 0.000000 0.000000 0.000000
														}
													}
												}
											}
										}
										JOINT RightHandMiddle1
										{
											OFFSET -23.810097 0.000000 0.000000
											CHANNELS 3 Xrotation Yrotation Zrotation
											JOINT RightHandMiddle2
											{
												OFFSET -7.176498 0.000000 0.000000
												CHANNELS 3 Xrotation Yrotation Zrotation
												JOINT RightHandMiddle3
												{
													OFFSET -6.774902 0.000000 0.000000
													CHANNELS 3 Xrotation Yrotation Zrotation
													JOINT RightHandMiddle4
													{
														OFFSET -5.403328 0.000000 0.000000
														CHANNELS 3 Xrotation Yrotation Zrotation
														End Site
														{
															OFFSET 0.000000 0.000000 0.000000
														}
													}
												}
											}
										}
										JOINT RightHandRing1
										{
											OFFSET -22.908302 -0.839325 -6.020576
											CHANNELS 3 Xrotation Yrotation Zrotation
											JOINT RightHandRing2
											{
												OFFSET -6.337502 0.000000 0.000000
												CHANNELS 3 Xrotation Yrotation Zrotation
												JOINT RightHandRing3
												{
													OFFSET -5.779297 0.000000 0.000000
													CHANNELS 3 Xrotation Yrotation Zrotation
													JOINT RightHandRing4
													{
														OFFSET -4.965698 0.000000 0.000000
														CHANNELS 3 Xrotation Yrotation Zrotation
														End Site
														{
															OFFSET 0.000000 0.000000 0.000000
														}
													}
												}
											}
										}
										JOINT RightHandPinky1
										{
											OFFSET -20.037003 -1.530334 -10.950259
											CHANNELS 3 Xrotation Yrotation Zrotation
											JOINT RightHandPinky2
											{
												OFFSET -5.254700 0.000000 0.000000
												CHANNELS 3 Xrotation Yrotation Zrotation
												JOINT RightHandPinky3
												{
													OFFSET -4.810204 0.000000 0.000000
													CHANNELS 3 Xrotation Yrotation Zrotation
													JOINT RightHandPinky4
													{
														OFFSET -3.647202 0.000000 0.000000
														CHANNELS 3 Xrotation Yrotation Zrotation
														End Site
														{
															OFFSET 0.000000 0.000000 0.000000
														}
													}
												}
											}
										}
									}
								}
							}
						}
					}
				}
			}
		}
	}
	JOINT LeftUpLeg
	{
		OFFSET 15.427100 -6.655098 0.678600
		CHANNELS 3 Xrotation Yrotation Zrotation
		JOINT LeftLeg
		{
			OFFSET 4.081073 -39.591068 13.024000
			CHANNELS 3 Xrotation Yrotation Zrotation
			JOINT LeftFoot
			{
				OFFSET -4.081074 -37.707932 -15.979700
				CHANNELS 3 Xrotation Yrotation Zrotation
				JOINT LeftToeBase
				{
					OFFSET 5.346399 -15.068900 20.645000
					CHANNELS 3 Xrotation Yrotation Zrotation
					JOINT LeftToe_End
					{
						OFFSET 2.754700 0.931300 11.300900
						CHANNELS 3 Xrotation Yrotation Zrotation
						End Site
						{
							OFFSET 0.000000 0.000000 0.000000
						}
					}
				}
			}
		}
	}
	JOINT RightUpLeg
	{
		OFFSET -15.569500 -6.655098 0.678600
		CHANNELS 3 Xrotation Yrotation Zrotation
		JOINT RightLeg
		{
			OFFSET -4.081825 -39.591045 13.023800
			CHANNELS 3 Xrotation Yrotation Zrotation
			JOINT RightFoot
			{
				OFFSET 4.081824 -37.707954 -15.979600
				CHANNELS 3 Xrotation Yrotation Zrotation
				JOINT RightToeBase
				{
					OFFSET -5.346400 -15.068900 20.645000
					CHANNELS 3 Xrotation Yrotation Zrotation
					JOINT RightToe_End
					{
						OFFSET -2.754700 0.931300 11.300900
						CHANNELS 3 Xrotation Yrotation Zrotation
						End Site
						{
							OFFSET 0.000000 0.000000 0.000000
						}
					}
				}
			}
		}
	}
}
MOTION
Frames: 4
Frame Time: 0.016667
-0.867981 69.147476 5.267826 26.331819 -23.097130 9.099520 14.960100 2.481068 -1.126607 8.954926 1.454254 -0.667655 0.000000 0.000000 0.000000 8.929228 1.567218 -0.769623 -7.642830 3.429836 -7.508562 -43.074786 9.987861 7.921034 0.000000 0.000000 -0.000000 3.858309 -6.469476 9.422128 0.000000 0.000000 0.000000 -49.881063 5.784868 -65.370935 0.016285 -89.198439 0.016315 6.361846 1.183438 20.596019 -17.636600 -15.237852 2.797101 5.947437 34.911665 2.502029 0.571369 15.024046 3.781410 -0.000000 -0.000003 -0.000001 0.388064 -2.283074 19.290718 0.587307 2.787370 -23.793314 0.148323 1.424269 -11.889506 0.000001 -0.000001 -0.000002 0.388693 -2.284893 19.306730 0.588108 2.789128 -23.809336 0.148318 1.424257 -11.889508 -0.000002 -0.000001 -0.000001 0.388064 -2.283074 19.290717 0.587307 2.787371 -23.793312 0.148325 1.424270 -11.889508 0.000002 -0.000000 -0.000002 -0.967834 1.537893 19.792339 0.593517 -1.272004 -24.261667 0.148322 1.424267 -11.889508 -0.000002 -0.000001 0.000001 3.960222 12.222855 4.273392 0.000000 0.000000 0.000000 -38.946913 11.840054 48.020830 0.000926 93.734887 -0.000950 19.436178 10.205504 7.992469 30.641403 13.211284 -0.281795 7.057650 -37.365858 -1.833666 -0.060069 -14.189616 -3.533744 -0.000001 -0.000000 -0.000000 0.155599 1.465709 -12.119890 0.379779 -2.270637 18.987426 0.095560 -1.151072 9.489956 0.000002 -0.000000 0.000000 0.155600 1.465708 -12.119890 0.379781 -2.270638 18.987427 0.095562 -1.151081 9.489954 -0.000000 0.000000 0.000001 0.155605 1.465700 -12.119899 0.379770 -2.270631 18.987431 0.095559 -1.151071 9.489956 -0.000001 -0.000000 -0.000001 0.155599 1.465709 -12.119890 0.379777 -2.270640 18.987427 0.095561 -1.151070 9.489955 -0.000002 0.000000 -0.000002 -74.936478 -4.206194 27.164113 57.517317 -2.935005 4.217995 -3.089584 1.977677 -22.601289 -0.000010 -0.000001 -0.000003 -0.000000 0.000000 0.000000 -67.613484 -3.433020 -27.121728 61.339094 3.323065 -5.843210 -14.041950 -5.305105 20.146620 -7.630233 -0.000002 -0.000003 0.000001 0.000001 -0.000000 
-0.867892 69.264603 5.329998 26.457303 -23.161930 9.146918 14.966925 2.350461 -1.159310 8.942664 1.377975 -0.669279 0.000000 0.000000 0.000000 8.917261 1.494832 -0.768342 -7.594612 3.504782 -7.365768 -43.161318 10.368546 7.992464 0.000000 0.000000 0.000000 3.797565 -6.379671 8.897878 0.000000 0.000000 0.000000 -49.025069 5.833137 -65.558615 0.093448 -90.335631 0.093795 6.494231 1.888111 21.591263 -17.777621 -15.392955 2.760416 5.958628 35.079927 2.510951 0.577782 15.107960 3.788488 -0.000003 0.000000 0.000000 0.392786 -2.296483 19.408860 0.610808 2.839935 -24.271480 0.154302 1.452422 -12.128171 0.000001 0.000001 -0.000001 0.393422 -2.298309 19.424868 0.611592 2.841698 -24.287494 0.154310 1.452423 -12.128175 0.000000 -0.000000 -0.000002 0.392786 -2.296483 19.408860 0.610807 2.839937 -24.271478 0.154306 1.452424 -12.128170 0.000001 0.000001 -0.000001 -0.970978 1.521657 19.910051 0.617404 -1.219613 -24.738156 0.154296 1.452418 -12.128169 0.000000 0.000001 0.000001 3.972539 12.168640 4.140057 0.000000 0.000000 0.000000 -38.744443 11.705566 49.039986 0.000208 95.072067 -0.000227 22.139722 11.186729 7.333660 30.626432 13.316707 -0.202574 7.068319 -37.497769 -1.838791 -0.055210 -14.255384 -3.539794 0.000000 -0.000001 -0.000000 0.168390 1.523981 -12.609646 0.421756 -2.389086 20.020290 0.106191 -1.213004 10.005750 0.000002 0.000001 -0.000001 0.168391 1.523981 -12.609644 0.421757 -2.389087 20.020292 0.106189 -1.213007 10.005744 -0.000002 0.000001 0.000002 0.168390 1.523983 -12.609645 0.421756 -2.389090 20.020290 0.106189 -1.213001 10.005746 0.000001 0.000001 -0.000000 0.168390 1.523981 -12.609644 0.421755 -2.389089 20.020292 0.106187 -1.213000 10.005746 0.000002 0.000002 -0.000001 -74.873818 -4.110176 27.171681 57.422404 -2.939800 4.266815 -3.197793 1.978909 -22.627324 -0.000060 0.000002 0.000046 -0.000000 0.000001 -0.000000 -67.581935 -3.530274 -27.005543 61.167588 3.191467 -5.983616 -14.063564 -5.154322 20.135871 -7.665202 0.000007 -0.000000 -0.000000 0.000003 0.000001 
-0.882751 69.340195 5.378258 26.604106 -23.240948 9.213392 14.972113 2.204564 -1.173888 8.932674 1.291005 -0.662404 0.000000 0.000000 0.000000 8.908022 1.411638 -0.757967 -7.575329 3.601990 -7.236722 -43.266673 10.835726 8.058438 0.000000 -0.000000 -0.000001 3.730440 -6.286343 8.218738 0.000000 0.000000 0.000000 -48.220207 5.755341 -65.566592 -0.006872 -91.419473 -0.006832 6.568290 2.351850 22.524229 -17.920205 -15.550476 2.725523 5.969989 35.250497 2.519976 0.584291 15.193032 3.795661 0.000001 0.000001 -0.000000 0.397588 -2.310109 19.528556 0.616498 2.852512 -24.386255 0.155749 1.459159 -12.185440 0.000003 0.000001 -0.000002 0.398226 -2.311925 19.544568 0.617302 2.854274 -24.402268 0.155760 1.459160 -12.185442 0.000001 0.000000 0.000000 0.397588 -2.310109 19.528558 0.616500 2.852514 -24.386255 0.155751 1.459157 -12.185443 0.000000 0.000001 -0.000001 -0.974135 1.505191 20.029335 0.623235 -1.207079 -24.852499 0.155754 1.459152 -12.185438 0.000003 -0.000001 0.000001 3.981619 12.107281 3.979448 0.000000 0.000000 0.000000 -38.415839 11.620497 49.978779 0.000314 96.616516 -0.000316 23.882028 11.595336 6.699908 30.612881 13.427188 -0.120945 7.079127 -37.631450 -1.843955 -0.050292 -14.322051 -3.545924 -0.000000 0.000000 -0.000000 0.181693 1.582202 -13.100026 0.465943 -2.506939 21.054748 0.117408 -1.274906 10.522288 -0.000000 -0.000001 -0.000000 0.181694 1.582201 -13.100026 0.465945 -2.506940 21.054743 0.117404 -1.274905 10.522293 -0.000001 -0.000001 -0.000001 0.181693 1.582202 -13.100022 0.465945 -2.506940 21.054743 0.117410 -1.274904 10.522290 -0.000001 -0.000001 -0.000000 0.181693 1.582202 -13.100026 0.465943 -2.506943 21.054746 0.117411 -1.274905 10.522287 0.000003 -0.000001 -0.000001 -74.842167 -4.061387 27.205547 57.369443 -2.937431 4.311772 -3.306021 1.991893 -22.694702 -0.000025 -0.000000 0.000018 0.000000 0.000000 -0.000000 -67.624344 -3.593806 -26.843637 61.065641 3.169401 -6.108959 -14.083970 -5.131939 20.093518 -7.690680 0.000020 -0.000005 0.000000 -0.000004 -0.000001 
-0.912955 69.378586 5.412689 26.770889 -23.330514 9.300447 14.980055 2.055368 -1.167110 8.925403 1.196947 -0.646761 0.000000 0.000000 0.000000 8.901929 1.320518 -0.738017 -7.587597 3.716966 -7.129045 -43.385010 11.376620 8.087226 0.000000 -0.000000 0.000000 3.660236 -6.192011 7.427271 0.000000 0.000000 0.000000 -47.464016 5.638790 -65.420945 -0.002504 -92.434057 -0.002550 6.579929 2.602506 23.316924 -18.073941 -15.721272 2.690565 5.981492 35.423434 2.529107 0.590880 15.279297 3.802908 -0.000001 0.000001 -0.000001 0.402507 -2.323870 19.649976 0.622309 2.865285 -24.502616 0.157235 1.466000 -12.243533 0.000001 0.000000 0.000001 0.403154 -2.325695 19.665988 0.623117 2.867037 -24.518643 0.157236 1.466010 -12.243524 -0.000001 0.000002 0.000001 0.402507 -2.323870 19.649974 0.622312 2.865288 -24.502614 0.157235 1.466001 -12.243532 0.000003 0.000000 -0.000001 -0.977281 1.488507 20.150337 0.629104 -1.194359 -24.968470 0.157246 1.466019 -12.243514 -0.000004 0.000001 0.000000 3.982092 12.033533 3.810700 0.000000 0.000000 0.000000 -38.063285 11.622193 50.879633 0.000146 98.202042 -0.000154 24.991828 11.467080 6.028766 30.609431 13.454906 -0.100492 7.090106 -37.766981 -1.849166 -0.045306 -14.389638 -3.552137 0.000000 -0.000000 0.000000 0.195503 1.640385 -13.591136 0.512327 -2.624125 22.090903 0.129187 -1.336819 11.039590 -0.000001 0.000000 -0.000000 0.195503 1.640384 -13.591135 0.512325 -2.624125 22.090898 0.129190 -1.336823 11.039593 0.000001 0.000002 -0.000001 0.195502 1.640389 -13.591131 0.512329 -2.624131 22.090898 0.129185 -1.336819 11.039585 -0.000003 -0.000001 -0.000000 0.195503 1.640385 -13.591135 0.512325 -2.624128 22.090900 0.129189 -1.336816 11.039588 -0.000003 -0.000001 -0.000006 -74.839844 -4.048660 27.259058 57.349287 -2.929170 4.357733 -3.411305 2.013757 -22.794339 -0.000006 -0.000001 0.000004 -0.000000 0.000000 -0.000000 -67.724433 -3.613643 -26.665735 61.025923 3.139770 -6.240468 -14.115192 -5.117887 20.075671 -7.701640 0.000001 0.000001 0.000000 -0.000002 -0.000001 
